<?xml version="1.0" ?><!DOCTYPE svg  PUBLIC '-//W3C//DTD SVG 1.1//EN'  'http://www.w3.org/Graphics/SVG/1.1/DTD/svg11.dtd'><svg height="32px" style="enable-background:new 0 0 16 32;" version="1.1" viewBox="0 0 16 32" width="16px" xml:space="preserve" xmlns="http://www.w3.org/2000/svg" xmlns:xlink="http://www.w3.org/1999/xlink"><g id="Layer_1"/><g id="award_x5F_stroke"><g><path d="M8,20c-1.41,0-2.742-0.289-4-0.736V32l4-4l4,4V19.264C10.742,19.711,9.41,20,8,20z" style="fill:#4E4E50;"/><path d="M8,0C3.582,0,0,3.582,0,8s3.582,8,8,8s8-3.582,8-8S12.418,0,8,0z M8,12c-2.211,0-4-1.791-4-4    s1.789-4,4-4s4,1.791,4,4S10.211,12,8,12z" style="fill:#4E4E50;"/></g></g></svg>