<?xml version="1.0" ?><!DOCTYPE svg  PUBLIC '-//W3C//DTD SVG 1.1//EN'  'http://www.w3.org/Graphics/SVG/1.1/DTD/svg11.dtd'><svg enable-background="new 0 0 91 91" height="91px" id="Layer_1" version="1.1" viewBox="0 0 91 91" width="91px" xml:space="preserve" xmlns="http://www.w3.org/2000/svg" xmlns:xlink="http://www.w3.org/1999/xlink"><g><path d="M29.003,37.536c-1.573-0.106-2.589,0.759-3.04,1.906c-2.74,0.215-5.612,1.962-7.435,3.623   c-2.954,2.691-4.777,6.728-4.817,10.725c-0.083,8.541,7.044,15.379,15.467,15.229c8.692-0.152,16.209-5.804,16.38-14.929   C45.734,44.766,37.838,38.126,29.003,37.536z M28.137,63.618c-5.805-0.244-10.362-5.441-9.628-11.308   c0.352-2.815,1.955-5.264,3.978-7.192c1.08-1.03,2.351-1.729,3.612-2.433c0.503,1,1.468,1.739,2.905,1.717   c5.526-0.083,11.271,3.668,11.16,9.687C40.04,60.656,34.128,63.871,28.137,63.618z"/><path d="M29.613,50.621c-0.854,0-1.753,0.373-2.358,0.978c-0.58,0.578-1.016,1.528-0.979,2.358c0.039,0.864,0.325,1.759,0.979,2.36   c0.653,0.6,1.456,0.978,2.358,0.978c0.856,0,1.755-0.372,2.36-0.978c0.578-0.58,1.014-1.527,0.977-2.36   c-0.038-0.861-0.323-1.757-0.977-2.358C31.318,51,30.517,50.621,29.613,50.621z"/><path d="M2.214,33.39C1.826,48.206,2.027,63.011,1.826,77.833c-0.022,1.587,1.285,2.618,2.753,2.754   c11.593,1.071,23.211,1.87,34.843,2.364c11.362,0.479,23.276,1.513,34.591,0.063c3.964-0.507,8.533-1.231,11.393-4.31   c3.188-3.433,2.944-8.899,3.238-13.244c0.766-11.394,1.111-22.815,2.008-34.202c0.108-1.383-1.283-2.638-2.605-2.607   c-6.854,0.167-13.703,0.292-20.547,0.357c0.266-1.486,0.583-2.979,0.717-4.432c0.212-2.265,0.379-4.5,0.344-6.773   c-0.072-4.565-1.021-6.941-5.925-7.042c-11.26-0.234-22.565,0.144-33.827,0.221c-1.686,0.012-3.375,1.489-3.266,3.266   c0.29,4.751,0.019,9.413-0.976,14.073c-0.002,0.009-0.002,0.018-0.003,0.026c-6.958-0.316-13.917-0.753-20.877-1.337   C-0.102,26.694-0.595,31.84,2.214,33.39z M80.847,75.832c-3.686,2.565-10.103,2.206-14.386,2.283   c-19.669,0.347-39.5-0.943-59.091-2.773c0.192-13.848-0.02-27.603-1.451-41.376c26.496,1.813,52.853,1.255,79.358,0.028   c-0.557,9.212-0.927,18.434-1.44,27.646C83.618,65.565,84.526,73.273,80.847,75.832z M32.206,17.441   c4.938-0.107,9.877-0.215,14.817-0.324c3.035-0.066,6.07-0.133,9.105-0.199c1.896-0.042,4.743-0.612,6.898-0.39   c0.21,1.155,0.074,2.657,0.188,3.585c0.138,1.147,0.347,2.284,0.515,3.427c0.262,1.75,0.708,3.63,1.019,5.488   c-11.197,0.077-22.388-0.026-33.575-0.417C31.894,24.91,32.255,21.197,32.206,17.441z"/><path d="M52.109,44.648c3.519,1.061,7.706,0.697,11.356,0.963c2.354,0.17,2.357-3.83,0-3.658c-3.65,0.265-7.838-0.098-11.356,0.963   C51.255,43.173,51.255,44.391,52.109,44.648z"/><path d="M75.895,51.438c-3.651,0.267-7.838-0.1-11.357,0.963c-0.854,0.257-0.856,1.474,0,1.731   c3.52,1.062,7.706,0.698,11.357,0.963C78.247,55.267,78.251,51.266,75.895,51.438z"/><path d="M63.466,61.901c-3.65,0.266-7.838-0.097-11.356,0.963c-0.854,0.259-0.854,1.477,0,1.733   c3.519,1.062,7.706,0.696,11.356,0.963C65.819,65.73,65.823,61.73,63.466,61.901z"/><path d="M76.031,41.239c-0.999,0.238-2.002,0.482-3.019,0.633c-1.037,0.154-1.969,0.187-2.95,0.583   c-0.748,0.302-1.109,1.432-0.245,1.876c2.028,1.048,4.501,0.799,6.727,0.689C79.333,44.884,78.779,40.587,76.031,41.239z"/><path d="M76.031,62.169c-0.999,0.239-2.002,0.482-3.019,0.635c-1.037,0.152-1.969,0.188-2.95,0.584   c-0.748,0.301-1.109,1.43-0.245,1.876c2.028,1.047,4.501,0.799,6.727,0.689C79.333,65.815,78.779,61.519,76.031,62.169z"/><path d="M58.229,55.486c2.791-0.137,2.235-4.434-0.51-3.78c-1.001,0.236-2.004,0.479-3.021,0.632   c-1.038,0.154-1.97,0.188-2.951,0.583c-0.745,0.301-1.109,1.431-0.245,1.876C53.532,55.845,56.005,55.597,58.229,55.486z"/></g></svg>