<svg width="32" height="32" xmlns="http://www.w3.org/2000/svg">

 <g>
  <title>background</title>
  <rect fill="none" id="canvas_background" height="402" width="582" y="-1" x="-1"/>
 </g>
 <g>
  <title>Layer 1</title>
  <circle id="svg_2" fill="#4E4E50" r="4" cy="20" cx="20"/>
  <path id="svg_3" fill="#4E4E50" d="m28,8l-3.289,-6.643c-0.27,-0.789 -1.016,-1.357 -1.899,-1.357l-5.492,0c-0.893,0 -1.646,0.582 -1.904,1.385l-3.412,6.615l-8.004,0c-2.209,0 -4,1.791 -4,4l0,20l32,0l0,-20c0,-2.209 -1.789,-4 -4,-4zm-22,8c-1.105,0 -2,-0.895 -2,-2s0.895,-2 2,-2s2,0.895 2,2s-0.895,2 -2,2zm14,12c-4.418,0 -8,-3.582 -8,-8s3.582,-8 8,-8s8,3.582 8,8s-3.582,8 -8,8z"/>
 </g>
</svg>