<?xml version="1.0" ?><!DOCTYPE svg  PUBLIC '-//W3C//DTD SVG 1.1//EN'  'http://www.w3.org/Graphics/SVG/1.1/DTD/svg11.dtd'><svg enable-background="new 0 0 24 24" height="24px" id="Layer_1" version="1.1" viewBox="0 0 24 24" width="24px" xml:space="preserve" xmlns="http://www.w3.org/2000/svg" xmlns:xlink="http://www.w3.org/1999/xlink"><g><g><path d="M13.6,17.7c-4.4,0-8.1-3.6-8.1-8.1c0-4.4,3.6-8.1,8.1-8.1c4.4,0,8.1,3.6,8.1,8.1C21.7,14.1,18.1,17.7,13.6,17.7z     M13.6,2.6c-3.9,0-7.1,3.2-7.1,7.1c0,3.9,3.2,7.1,7.1,7.1c3.9,0,7.1-3.2,7.1-7.1C20.7,5.8,17.5,2.6,13.6,2.6z"/></g><g><path d="M5.1,23.5c-0.6,0-1.2-0.2-1.7-0.5c-1.1-0.6-1.7-1.8-1.7-3V4c0-1.2,0.7-2.4,1.7-3c1.1-0.6,2.4-0.6,3.5,0L10,2.8    c0.2,0.1,0.2,0.2,0.2,0.4S10.1,3.6,10,3.6c-2.1,1.3-3.4,3.6-3.4,6c0,3.9,3.2,7.1,7.1,7.1c3.8,0,6.9-3,7-6.7c0-0.2,0.1-0.4,0.3-0.4    c0.2-0.1,0.4,0,0.5,0.1c0.6,0.6,0.9,1.5,0.9,2.3c0,1.2-0.7,2.4-1.7,3L6.8,23C6.3,23.3,5.7,23.5,5.1,23.5z M5.1,1.5    c-0.4,0-0.9,0.1-1.2,0.3C3,2.3,2.6,3.1,2.6,4v16c0,0.9,0.5,1.7,1.2,2.2c0.8,0.4,1.7,0.4,2.5,0l7.7-4.4c-0.1,0-0.2,0-0.4,0    c-4.4,0-8.1-3.6-8.1-8.1c0-2.6,1.2-4.9,3.2-6.4L6.3,1.8C5.9,1.6,5.5,1.5,5.1,1.5z M21.4,11.8c-0.2,0.8-0.5,1.5-1,2.2    c0.6-0.5,1-1.2,1-2C21.4,11.9,21.4,11.8,21.4,11.8z"/></g><g><g><path d="M13.4,12.6c-0.3,0-0.5-0.2-0.5-0.5V6.7c0-0.2,0.1-0.4,0.3-0.5l2.8-1c0.3-0.1,0.5,0,0.6,0.3c0.1,0.3,0,0.5-0.3,0.6     l-2.4,0.9v5C13.9,12.4,13.6,12.6,13.4,12.6z"/></g><g><path d="M13.4,9.5c-0.1,0-0.2,0-0.3-0.1c-0.1-0.1-0.2-0.2-0.2-0.4V6.7c0-0.2,0.1-0.4,0.3-0.5l2.8-1c0.3-0.1,0.5,0,0.6,0.3     c0.1,0.3,0,0.5-0.3,0.6l-2.4,0.9v1.3l2.1-0.8c0.3-0.1,0.5,0,0.6,0.3c0.1,0.3,0,0.5-0.3,0.6l-2.8,1C13.5,9.5,13.4,9.5,13.4,9.5z"/></g><g><path d="M12.5,14.1H12c-0.7,0-1.3-0.6-1.3-1.3v-0.5c0-0.7,0.6-1.3,1.3-1.3h1.4c0.3,0,0.5,0.2,0.5,0.5v1.4     C13.9,13.5,13.3,14.1,12.5,14.1z M12,11.9c-0.2,0-0.3,0.2-0.3,0.3v0.5c0,0.2,0.2,0.3,0.3,0.3h0.5c0.2,0,0.3-0.2,0.3-0.3v-0.9H12z     "/></g></g></g></svg>