<svg width="32" height="27.999999999999996" xmlns="http://www.w3.org/2000/svg">

 <g>
  <title>background</title>
  <rect fill="none" id="canvas_background" height="402" width="582" y="-1" x="-1"/>
 </g>
 <g>
  <title>Layer 1</title>
  <path id="svg_1" fill="#494949" d="m16,4c0,0 -4,-4 -16,-4l0,24c12.125,0 16,4 16,4s3.875,-4 16,-4l0,-24c-12,0 -16,4 -16,4zm-12,0c5.084,0.426 8.203,1.602 10,2.555l0,16.109c-1.797,-0.949 -4.916,-2.125 -10,-2.555l0,-16.109zm24,16.109c-5.086,0.43 -8.205,1.605 -10,2.555l0,-16.109c1.795,-0.953 4.914,-2.129 10,-2.555l0,16.109z"/>
 </g>
</svg>