<svg width="32" height="32" xmlns="http://www.w3.org/2000/svg">

 <g>
  <title>background</title>
  <rect fill="none" id="canvas_background" height="402" width="582" y="-1" x="-1"/>
 </g>
 <g>
  <title>Layer 1</title>
  <path id="svg_1" fill="#494949" d="m27.977,8l-3.949,0l3.972,-3.984l-3.926,-4.016l-5.566,0l3.988,3.984l-4.086,4.016l-4.723,0l4.059,-3.984l-4.012,-4.016l-5.656,0l3.984,3.984l-4.085,4.016l-4.008,0l4.062,-3.984l-4.015,-4.016l-4.016,0l0,32l32,0l0,-32l-3.922,0l3.922,4l-4.023,4zm0.023,19.957l-24,0l0,-4l24,0l0,4zm0,-7.957l-24,0l0,-4l24,0l0,4z"/>
 </g>
</svg>